<svg width="321" height="191" viewBox="0 0 321 191" fill="none" xmlns="http://www.w3.org/2000/svg">
<path d="M0 14C16.0491 14 16.0491 1 32.0997 1C48.1503 1 48.1503 14 64.1994 14C80.2486 14 80.25 1 96.2991 1C112.35 1 112.35 14 128.399 14C144.448 14 144.448 1 160.499 1C176.548 1 176.548 14 192.598 14C208.649 14 208.649 1 224.698 1C240.749 1 240.749 14 256.798 14C272.848 14 272.848 1 288.899 1C304.949 1 304.949 14 321 14" stroke="#C2C2C2" stroke-miterlimit="10"/>
<path d="M0 36C16.0491 36 16.0491 23 32.0997 23C48.1503 23 48.1503 36 64.1994 36C80.2486 36 80.25 23 96.2991 23C112.35 23 112.35 36 128.399 36C144.448 36 144.448 23 160.499 23C176.548 23 176.548 36 192.598 36C208.649 36 208.649 23 224.698 23C240.749 23 240.749 36 256.798 36C272.848 36 272.848 23 288.899 23C304.949 23 304.949 36 321 36" stroke="#C2C2C2" stroke-miterlimit="10"/>
<path d="M0 58C16.0491 58 16.0491 45 32.0997 45C48.1503 45 48.1503 58 64.1994 58C80.2486 58 80.25 45 96.2991 45C112.35 45 112.35 58 128.399 58C144.448 58 144.448 45 160.499 45C176.548 45 176.548 58 192.598 58C208.649 58 208.649 45 224.698 45C240.749 45 240.749 58 256.798 58C272.848 58 272.848 45 288.899 45C304.949 45 304.949 58 321 58" stroke="#C2C2C2" stroke-miterlimit="10"/>
<path d="M0 80C16.0491 80 16.0491 67 32.0997 67C48.1503 67 48.1503 80 64.1994 80C80.2486 80 80.25 67 96.2991 67C112.35 67 112.35 80 128.399 80C144.448 80 144.448 67 160.499 67C176.548 67 176.548 80 192.598 80C208.649 80 208.649 67 224.698 67C240.749 67 240.749 80 256.798 80C272.848 80 272.848 67 288.899 67C304.949 67 304.949 80 321 80" stroke="#C2C2C2" stroke-miterlimit="10"/>
<path d="M0 102C16.0491 102 16.0491 89 32.0997 89C48.1503 89 48.1503 102 64.1994 102C80.2486 102 80.25 89 96.2991 89C112.35 89 112.35 102 128.399 102C144.448 102 144.448 89 160.499 89C176.548 89 176.548 102 192.598 102C208.649 102 208.649 89 224.698 89C240.749 89 240.749 102 256.798 102C272.848 102 272.848 89 288.899 89C304.949 89 304.949 102 321 102" stroke="#C2C2C2" stroke-miterlimit="10"/>
<path d="M0 124C16.0491 124 16.0491 111 32.0997 111C48.1503 111 48.1503 124 64.1994 124C80.2486 124 80.25 111 96.2991 111C112.35 111 112.35 124 128.399 124C144.448 124 144.448 111 160.499 111C176.548 111 176.548 124 192.598 124C208.649 124 208.649 111 224.698 111C240.749 111 240.749 124 256.798 124C272.848 124 272.848 111 288.899 111C304.949 111 304.949 124 321 124" stroke="#C2C2C2" stroke-miterlimit="10"/>
<path d="M0 146C16.0491 146 16.0491 133 32.0997 133C48.1503 133 48.1503 146 64.1994 146C80.2486 146 80.25 133 96.2991 133C112.35 133 112.35 146 128.399 146C144.448 146 144.448 133 160.499 133C176.548 133 176.548 146 192.598 146C208.649 146 208.649 133 224.698 133C240.749 133 240.749 146 256.798 146C272.848 146 272.848 133 288.899 133C304.949 133 304.949 146 321 146" stroke="#C2C2C2" stroke-miterlimit="10"/>
<path d="M0 168C16.0491 168 16.0491 155 32.0997 155C48.1503 155 48.1503 168 64.1994 168C80.2486 168 80.25 155 96.2991 155C112.35 155 112.35 168 128.399 168C144.448 168 144.448 155 160.499 155C176.548 155 176.548 168 192.598 168C208.649 168 208.649 155 224.698 155C240.749 155 240.749 168 256.798 168C272.848 168 272.848 155 288.899 155C304.949 155 304.949 168 321 168" stroke="#C2C2C2" stroke-miterlimit="10"/>
<path d="M0 190C16.0491 190 16.0491 177 32.0997 177C48.1503 177 48.1503 190 64.1994 190C80.2486 190 80.25 177 96.2991 177C112.35 177 112.35 190 128.399 190C144.448 190 144.448 177 160.499 177C176.548 177 176.548 190 192.598 190C208.649 190 208.649 177 224.698 177C240.749 177 240.749 190 256.798 190C272.848 190 272.848 177 288.899 177C304.949 177 304.949 190 321 190" stroke="#F4F5FC" stroke-miterlimit="10"/>
</svg>
